{
  "accessors": [
    {
      "bufferView": 2,
      "componentType": 5126,
      "count": 274,
      "max": [
        35.386768341064453,
        35.386768341064453,
        0
      ],
      "min": [
        -35.386768341064453,
        -35.386768341064453,
        -5.2207565307617188
      ],
      "type": "VEC3"
    },
    {
      "bufferView": 2,
      "byteOffset": 3288,
      "componentType": 5126,
      "count": 274,
      "max": [
        1,
        1,
        1
      ],
      "min": [
        -1,
        -1,
        -1
      ],
      "type": "VEC3"
    },
    {
      "bufferView": 3,
      "componentType": 5126,
      "count": 274,
      "max": [
        0.99756413698196411,
        0.99756413698196411,
        0,
        1
      ],
      "min": [
        -0.06975710391998291,
        -0.069757990539073944,
        -1,
        1
      ],
      "type": "VEC4"
    },
    {
      "bufferView": 1,
      "componentType": 5126,
      "count": 274,
      "max": [
        0.99036812782287598,
        0.9989999532699585
      ],
      "min": [
        0.0010000000474974513,
        0.0010000000474974513
      ],
      "type": "VEC2"
    },
    {
      "bufferView": 0,
      "componentType": 5125,
      "count": 1056,
      "max": [
        273
      ],
      "min": [
        0
      ],
      "type": "SCALAR"
    }
  ],
  "asset": {
    "extras": {
      "author": "Karolina Renkiewicz (https://sketchfab.com/KarolinaRenkiewicz)",
      "license": "CC-BY-NC-4.0 (http://creativecommons.org/licenses/by-nc/4.0/)",
      "source": "https://sketchfab.com/3d-models/bitcoin-ff17dab54b044d789d05ae7c8dfb9808",
      "title": "Bitcoin"
    },
    "generator": "Sketchfab-7.88.0",
    "version": "2.0"
  },
  "bufferViews": [
    {
      "buffer": 0,
      "byteLength": 4224,
      "byteOffset": 0,
      "name": "floatBufferViews",
      "target": 34963
    },
    {
      "buffer": 0,
      "byteLength": 2192,
      "byteOffset": 4224,
      "byteStride": 8,
      "name": "floatBufferViews",
      "target": 34962
    },
    {
      "buffer": 0,
      "byteLength": 6576,
      "byteOffset": 6416,
      "byteStride": 12,
      "name": "floatBufferViews",
      "target": 34962
    },
    {
      "buffer": 0,
      "byteLength": 4384,
      "byteOffset": 12992,
      "byteStride": 16,
      "name": "floatBufferViews",
      "target": 34962
    }
  ],
  "buffers": [
    {
      "byteLength": 17376,
      "uri": "model_btc_coin.bin"
    }
  ],
  "images": [
    {
      "uri": "textures/Scene_-_Root_baseColor.png"
    },
    {
      "uri": "textures/Scene_-_Root_metallicRoughness.png"
    },
    {
      "uri": "textures/Scene_-_Root_normal.png"
    }
  ],
  "materials": [
    {
      "doubleSided": true,
      "name": "Scene_-_Root",
      "normalTexture": {
        "index": 2,
        "scale": 1,
        "texCoord": 0
      },
      "pbrMetallicRoughness": {
        "baseColorFactor": [
          1,
          1,
          1,
          1
        ],
        "baseColorTexture": {
          "index": 0,
          "texCoord": 0
        },
        "metallicFactor": 1,
        "metallicRoughnessTexture": {
          "index": 1,
          "texCoord": 0
        },
        "roughnessFactor": 1
      }
    }
  ],
  "meshes": [
    {
      "name": "Cylinder002__0",
      "primitives": [
        {
          "attributes": {
            "NORMAL": 1,
            "POSITION": 0,
            "TANGENT": 2,
            "TEXCOORD_0": 3
          },
          "indices": 4,
          "material": 0,
          "mode": 4
        }
      ]
    }
  ],
  "nodes": [
    {
      "children": [
        1
      ],
      "name": "RootNode (gltf orientation matrix)",
      "rotation": [
        -0.70710678118654746,
        -0,
        -0,
        0.70710678118654757
      ]
    },
    {
      "children": [
        2
      ],
      "name": "RootNode (model correction matrix)"
    },
    {
      "children": [
        3
      ],
      "matrix": [
        1,
        0,
        0,
        0,
        0,
        0,
        1,
        0,
        0,
        -1,
        0,
        0,
        0,
        0,
        0,
        1
      ],
      "name": "eed4eea7c5f945348e5683a14e2087b9.fbx"
    },
    {
      "children": [
        4
      ],
      "name": "RootNode"
    },
    {
      "children": [
        5
      ],
      "matrix": [
        1,
        0,
        0,
        0,
        0,
        0.999999999999999,
        4.3711388286737922e-08,
        0,
        0,
        -4.3711388286737922e-08,
        0.999999999999999,
        0,
        -3.4889993667602539,
        36.230010986328125,
        -11.293508529663086,
        1
      ],
      "name": "Cylinder002"
    },
    {
      "mesh": 0,
      "name": "Cylinder002__0"
    }
  ],
  "samplers": [
    {
      "magFilter": 9729,
      "minFilter": 9987,
      "wrapS": 10497,
      "wrapT": 10497
    }
  ],
  "scene": 0,
  "scenes": [
    {
      "name": "OSG_Scene",
      "nodes": [
        0
      ]
    }
  ],
  "textures": [
    {
      "sampler": 0,
      "source": 0
    },
    {
      "sampler": 0,
      "source": 1
    },
    {
      "sampler": 0,
      "source": 2
    }
  ]
}

